HIERARCHY
ROOT joint_Root
{
	OFFSET 0.0 0.0 0.0
	CHANNELS 6 Xposition Yposition Zposition Zrotation Xrotation Yrotation 
	JOINT Hips
	{
		OFFSET 4.5925 91.4895 -427.239
		CHANNELS 6 Xposition Yposition Zposition Zrotation Xrotation Yrotation 
		JOINT Spine
		{
			OFFSET 15.7357 0.0 0.0
			CHANNELS 6 Xposition Yposition Zposition Zrotation Xrotation Yrotation 
			JOINT Chest
			{
				OFFSET 8.98455 -0.406207 0.0
				CHANNELS 6 Xposition Yposition Zposition Zrotation Xrotation Yrotation 
				JOINT Neck
				{
					OFFSET 16.3773 0.0 0.0
					CHANNELS 6 Xposition Yposition Zposition Zrotation Xrotation Yrotation 
					JOINT Head
					{
						OFFSET 6.45672 0.0 0.0
						CHANNELS 6 Xposition Yposition Zposition Zrotation Xrotation Yrotation 
						End Site
						{
							OFFSET 0.0 0.0 0.0
						}
					}
				}
				JOINT Shoulder_L
				{
					OFFSET 12.9942 -0.242716 4.98039
					CHANNELS 6 Xposition Yposition Zposition Zrotation Xrotation Yrotation 
					JOINT UpperArm_L
					{
						OFFSET 5.34809 0.0 0.0
						CHANNELS 6 Xposition Yposition Zposition Zrotation Xrotation Yrotation 
						JOINT LowerArm_L
						{
							OFFSET 24.3286 1.87007e-05 0.0
							CHANNELS 6 Xposition Yposition Zposition Zrotation Xrotation Yrotation 
							JOINT Hand_L
							{
								OFFSET 22.2916 0.0 0.0
								CHANNELS 6 Xposition Yposition Zposition Zrotation Xrotation Yrotation 
								End Site
								{
									OFFSET 0.0 0.0 0.0
								}
							}
						}
					}
				}
				JOINT Shoulder_R
				{
					OFFSET 12.9945 -0.242716 -4.98039
					CHANNELS 6 Xposition Yposition Zposition Zrotation Xrotation Yrotation 
					JOINT UpperArm_R
					{
						OFFSET -5.34813 0.0 0.0
						CHANNELS 6 Xposition Yposition Zposition Zrotation Xrotation Yrotation 
						JOINT LowerArm_R
						{
							OFFSET -24.3289 0.000322201 0.0
							CHANNELS 6 Xposition Yposition Zposition Zrotation Xrotation Yrotation 
							JOINT Hand_R
							{
								OFFSET -22.2915 -0.000108084 0.0
								CHANNELS 6 Xposition Yposition Zposition Zrotation Xrotation Yrotation 
								End Site
								{
									OFFSET 0.0 0.0 0.0
								}
							}
						}
					}
				}
			}
		}
		JOINT UpperLeg_L
		{
			OFFSET -2.19248 -6.46944 0.0
			CHANNELS 6 Xposition Yposition Zposition Zrotation Xrotation Yrotation 
			JOINT LowerLeg_L
			{
				OFFSET 39.0811 0.0 -1.23785e-05
				CHANNELS 6 Xposition Yposition Zposition Zrotation Xrotation Yrotation 
				JOINT Foot_L
				{
					OFFSET 40.9854 0.0 -1.26872e-05
					CHANNELS 6 Xposition Yposition Zposition Zrotation Xrotation Yrotation 
					JOINT Toes_L
					{
						OFFSET 11.7543 0.0 0.0
						CHANNELS 6 Xposition Yposition Zposition Zrotation Xrotation Yrotation 
						End Site
						{
							OFFSET 0.0 0.0 0.0
						}
					}
				}
			}
		}
		JOINT UpperLeg_R
		{
			OFFSET -2.19251 6.46944 0.0
			CHANNELS 6 Xposition Yposition Zposition Zrotation Xrotation Yrotation 
			JOINT LowerLeg_R
			{
				OFFSET -39.0811 -0.00228153 -0.0401928
				CHANNELS 6 Xposition Yposition Zposition Zrotation Xrotation Yrotation 
				JOINT Foot_R
				{
					OFFSET -40.9854 0.0 0.0
					CHANNELS 6 Xposition Yposition Zposition Zrotation Xrotation Yrotation 
					JOINT Toes_R
					{
						OFFSET -11.7543 0.0 0.0
						CHANNELS 6 Xposition Yposition Zposition Zrotation Xrotation Yrotation 
						End Site
						{
							OFFSET 0.0 0.0 0.0
						}
					}
				}
			}
		}
	}
}
MOTION
Frames:	4
Frame Time:	0.0333333
0.000000 0.000000 0.000000 0.000000 0.000000 -0.000000 -7.937510 90.573600 1.545130 87.404200 -1.698600 10.596500 15.735700 0.000005 -0.000001 79.841200 82.448500 -75.963000 8.984550 -0.406207 -0.000000 7.208810 -2.672830 7.918020 16.377300 -0.000001 -0.000001 22.033600 -10.321000 4.841410 6.456720 -0.000001 -0.000000 10.300500 -14.643000 19.923900 12.994200 -0.242716 4.980390 -87.255300 -6.427420 -66.816700 5.348090 -0.000007 -0.000001 -50.898600 -59.750000 -70.941000 24.328600 0.000019 0.000005 10.833600 14.054000 -38.240100 22.291600 -0.000001 0.000005 14.934600 5.364280 -1.809300 12.994500 -0.242716 -4.980390 88.212800 8.834440 -78.515700 -5.348130 -0.000001 -0.000004 -60.673900 28.762100 -10.153400 -24.328900 0.000322 -0.000009 2.301390 7.317180 -17.520300 -22.291500 -0.000108 -0.000004 12.803700 5.367270 -1.902260 -2.192480 -6.469440 -0.000000 -167.327000 -10.957900 2.108170 39.081100 -0.000007 -0.000012 -0.243421 0.423494 29.890300 40.985400 -0.000006 -0.000013 -3.839880 8.977820 -70.202900 11.754300 -0.000000 0.000003 -0.000107 -0.001090 -16.619300 -2.192510 6.469440 -0.000001 177.665000 28.457400 -173.587000 -39.081100 -0.002282 -0.040193 -0.178492 0.356038 27.050000 -40.985400 0.000008 0.000006 9.478160 18.253200 -73.646200 -11.754300 -0.000006 -0.000006 -0.000000 -0.000000 -16.573800
0.000000 0.000000 0.000000 0.000000 0.000000 -0.000000 -7.933790 90.573300 1.489190 87.428900 -1.710720 10.674300 15.735700 0.000005 -0.000001 79.859600 82.402500 -75.949100 8.984550 -0.406207 -0.000000 7.301460 -2.680990 7.985050 16.377300 -0.000001 -0.000001 22.048800 -10.336400 5.022560 6.456720 -0.000001 -0.000000 10.294100 -14.689100 19.814000 12.994200 -0.242716 4.980390 -87.374000 -6.198760 -66.986100 5.348090 -0.000007 -0.000001 -51.499000 -59.984300 -70.126800 24.328600 0.000019 0.000005 9.846480 15.204500 -33.497100 22.291600 -0.000001 0.000005 14.371300 5.327460 -0.710376 12.994500 -0.242716 -4.980390 88.185600 8.891750 -78.417900 -5.348130 -0.000001 -0.000004 -60.353500 28.613900 -10.180800 -24.328900 0.000322 -0.000009 2.329040 7.458560 -17.404200 -22.291500 -0.000108 -0.000004 12.855200 5.366330 -1.873490 -2.192480 -6.469440 -0.000000 -167.337000 -10.989900 2.139170 39.081100 -0.000007 -0.000012 -0.242906 0.422243 29.911200 40.985400 -0.000006 -0.000013 -3.829040 8.990300 -70.171900 11.754300 -0.000000 0.000003 -0.000107 -0.001089 -16.619300 -2.192510 6.469440 -0.000001 177.648000 28.347100 -173.596000 -39.081100 -0.002282 -0.040193 -0.181283 0.360489 27.115200 -40.985400 0.000008 0.000006 9.467170 18.182000 -73.623800 -11.754300 -0.000006 -0.000006 -0.000141 -0.002336 -16.668700
0.000000 0.000000 0.000000 0.000000 0.000000 -0.000000 -7.919740 90.580000 1.419350 87.458200 -1.717550 10.773200 15.735700 0.000005 -0.000001 79.776200 82.349400 -75.841700 8.984550 -0.406207 -0.000000 7.404290 -2.717770 8.038060 16.377300 -0.000001 -0.000001 22.065800 -10.339600 5.099710 6.456720 -0.000001 -0.000000 10.315200 -14.683200 19.790100 12.994200 -0.242716 4.980390 -87.461300 -6.004990 -67.031800 5.348090 -0.000007 -0.000001 -52.618400 -60.085800 -69.898400 24.328600 0.000019 0.000005 9.066410 16.636700 -29.134300 22.291600 -0.000001 0.000005 13.945700 5.273460 0.805928 12.994500 -0.242716 -4.980390 88.147300 9.015120 -78.336000 -5.348130 -0.000001 -0.000004 -60.021200 28.344500 -10.183200 -24.328900 0.000322 -0.000009 2.353000 7.558000 -17.356400 -22.291500 -0.000108 -0.000004 12.937000 5.367310 -1.903630 -2.192480 -6.469440 -0.000000 -167.353000 -11.012000 2.199530 39.081100 -0.000007 -0.000012 -0.242963 0.422583 29.897100 40.985400 -0.000006 -0.000013 -3.806710 9.033040 -70.118800 11.754300 -0.000000 0.000003 -0.000111 -0.001126 -16.620700 -2.192510 6.469440 -0.000001 177.638000 28.225100 -173.583000 -39.081100 -0.002282 -0.040193 -0.177563 0.352746 27.146700 -40.985400 0.000008 0.000006 9.447240 18.084200 -73.572100 -11.754300 -0.000006 -0.000006 -0.000000 -0.000000 -16.573800
0.000000 0.000000 0.000000 0.000000 0.000000 -0.000000 -7.889230 90.580800 1.353240 87.517500 -1.669260 10.824500 15.735700 0.000005 -0.000001 79.672800 82.296400 -75.726400 8.984550 -0.406207 -0.000000 7.505770 -2.760090 8.067120 16.377300 -0.000001 -0.000001 21.957700 -10.310000 5.183490 6.456720 -0.000001 -0.000000 10.368900 -14.614000 19.718400 12.994200 -0.242716 4.980390 -87.539200 -5.833250 -67.078700 5.348090 -0.000007 -0.000001 -53.783500 -60.133000 -69.461600 24.328600 0.000019 0.000005 8.714830 18.094000 -26.269300 22.291600 -0.000001 0.000005 13.079000 5.228100 2.006110 12.994500 -0.242716 -4.980390 88.099500 9.159190 -78.224600 -5.348130 -0.000001 -0.000004 -59.629700 28.134700 -10.303400 -24.328900 0.000322 -0.000009 2.369140 7.620240 -17.335000 -22.291500 -0.000108 -0.000004 12.933400 5.367450 -1.907900 -2.192480 -6.469440 -0.000000 -167.436000 -11.034100 2.179450 39.081100 -0.000007 -0.000012 -0.241480 0.419552 29.923700 40.985400 -0.000006 -0.000013 -3.766020 9.051600 -70.082700 11.754300 -0.000000 0.000003 -0.000105 -0.001076 -16.618800 -2.192510 6.469440 -0.000001 177.593000 28.125200 -173.647000 -39.081100 -0.002282 -0.040193 -0.179911 0.355866 27.242000 -40.985400 0.000008 0.000006 9.408320 17.962900 -73.547500 -11.754300 -0.000006 -0.000006 -0.000032 -0.000538 -16.595700
